<svg xmlns="http://www.w3.org/2000/svg" viewBox="0 0 800 600" width="800" height="600" role="img">
  <defs>
    <linearGradient id="bg" x1="0" y1="0" x2="1" y2="1">
      <stop offset="0" stop-color="#e3f2ef"/><stop offset="1" stop-color="#c2e2dc"/>
    </linearGradient>
  </defs>
  <rect width="800" height="600" fill="url(#bg)"/>
  <circle cx="680" cy="90" r="150" fill="#a9d8cf" opacity="0.45"/>
  <circle cx="90" cy="530" r="130" fill="#a9d8cf" opacity="0.35"/>
  <circle cx="740" cy="500" r="70" fill="#a9d8cf" opacity="0.30"/>
  
      
  <ellipse cx="400" cy="470" rx="200" ry="26" fill="#000000" opacity="0.10"/>
  <circle cx="400" cy="300" r="175" fill="#ffffff"/>
  <circle cx="400" cy="300" r="150" fill="#f7f8f4"/>
  <circle cx="400" cy="300" r="150" fill="none" stroke="#e8ece2" stroke-width="2"/>
      <path d="M270 285 a130 82 0 0 0 260 0 Z" fill="#eef4e3"/>
      <ellipse cx="400" cy="285" rx="130" ry="28" fill="#dcecc6"/>
      <path d="M320 268 q20 -30 44 -8 q-8 26 -44 8 Z" fill="#f2969a"/>
      <path d="M360 262 q22 -28 46 -6 q-10 26 -46 6 Z" fill="#ef8489"/>
      <path d="M404 264 q22 -28 46 -6 q-10 26 -46 6 Z" fill="#f2969a"/>
      <path d="M300 250 q14 -20 30 -4 q-6 18 -30 4 Z" fill="#8fbf6f"/>
      <path d="M470 252 q14 -20 30 -4 q-6 18 -30 4 Z" fill="#8fbf6f"/>
      <circle cx="445" cy="272" r="9" fill="#5f8f4e"/><circle cx="330" cy="278" r="9" fill="#5f8f4e"/>
      
  <g transform="translate(290,205) scale(1)" fill="#6f9e57" opacity="0.9">
    <path d="M0 0 C 18 -26, 52 -30, 66 -14 C 58 12, 22 20, 0 0 Z"/>
    <path d="M14 -6 C 30 -14, 48 -14, 60 -10" stroke="#ffffff" stroke-width="3" fill="none" stroke-linecap="round" opacity="0.5"/>
  </g>
  <g transform="translate(480,215) scale(-0.8)" fill="#6f9e57" opacity="0.7">
    <path d="M0 0 C 18 -26, 52 -30, 66 -14 C 58 12, 22 20, 0 0 Z"/>
    <path d="M14 -6 C 30 -14, 48 -14, 60 -10" stroke="#ffffff" stroke-width="3" fill="none" stroke-linecap="round" opacity="0.5"/>
  </g>
</svg>